<mxfile host="app.diagrams.net" modified="2024-04-24T14:01:54.831Z" agent="Mozilla/5.0 (Windows NT 10.0; Win64; x64) AppleWebKit/537.36 (KHTML, like Gecko) Chrome/123.0.0.0 Safari/537.36" etag="4sgqXY24L0QkkQnAfvxs" version="24.2.9" type="github">
  <diagram name="第 1 页" id="HGLDyv8BH4dk013UrVIh">
    <mxGraphModel dx="2620" dy="923" grid="1" gridSize="10" guides="1" tooltips="1" connect="1" arrows="1" fold="1" page="1" pageScale="1" pageWidth="827" pageHeight="1169" math="0" shadow="0">
      <root>
        <mxCell id="0" />
        <mxCell id="1" parent="0" />
        <mxCell id="jLknQ4JefzLzpSv0ryhA-1" value="" style="rounded=0;whiteSpace=wrap;html=1;" vertex="1" parent="1">
          <mxGeometry x="-90" y="70" width="1110" height="690" as="geometry" />
        </mxCell>
        <mxCell id="jLknQ4JefzLzpSv0ryhA-2" value="" style="rounded=0;whiteSpace=wrap;html=1;" vertex="1" parent="1">
          <mxGeometry x="-50" y="90" width="850" height="190" as="geometry" />
        </mxCell>
        <mxCell id="jLknQ4JefzLzpSv0ryhA-4" value="" style="rounded=0;whiteSpace=wrap;html=1;" vertex="1" parent="1">
          <mxGeometry x="-50" y="300" width="850" height="320" as="geometry" />
        </mxCell>
        <mxCell id="jLknQ4JefzLzpSv0ryhA-5" value="" style="rounded=0;whiteSpace=wrap;html=1;" vertex="1" parent="1">
          <mxGeometry x="-50" y="670" width="850" height="80" as="geometry" />
        </mxCell>
        <mxCell id="jLknQ4JefzLzpSv0ryhA-6" value="" style="rounded=0;whiteSpace=wrap;html=1;" vertex="1" parent="1">
          <mxGeometry x="820" y="90" width="180" height="660" as="geometry" />
        </mxCell>
        <mxCell id="jLknQ4JefzLzpSv0ryhA-11" value="" style="rounded=0;whiteSpace=wrap;html=1;" vertex="1" parent="1">
          <mxGeometry x="-50" y="300" width="850" height="90" as="geometry" />
        </mxCell>
        <mxCell id="jLknQ4JefzLzpSv0ryhA-12" value="可视化流程" style="rounded=0;whiteSpace=wrap;html=1;" vertex="1" parent="1">
          <mxGeometry x="-30" y="315" width="150" height="60" as="geometry" />
        </mxCell>
        <mxCell id="jLknQ4JefzLzpSv0ryhA-13" value="可视化表单" style="rounded=0;whiteSpace=wrap;html=1;" vertex="1" parent="1">
          <mxGeometry x="190" y="315" width="150" height="60" as="geometry" />
        </mxCell>
        <mxCell id="jLknQ4JefzLzpSv0ryhA-14" value="可视化页面" style="rounded=0;whiteSpace=wrap;html=1;" vertex="1" parent="1">
          <mxGeometry x="400" y="315" width="150" height="60" as="geometry" />
        </mxCell>
        <mxCell id="jLknQ4JefzLzpSv0ryhA-15" value="可视化数据" style="rounded=0;whiteSpace=wrap;html=1;" vertex="1" parent="1">
          <mxGeometry x="630" y="315" width="150" height="60" as="geometry" />
        </mxCell>
        <mxCell id="jLknQ4JefzLzpSv0ryhA-21" value="管理信息系统" style="rounded=0;whiteSpace=wrap;html=1;" vertex="1" parent="1">
          <mxGeometry x="-30" y="110" width="170" height="50" as="geometry" />
        </mxCell>
        <mxCell id="jLknQ4JefzLzpSv0ryhA-22" value="数据采集" style="rounded=0;whiteSpace=wrap;html=1;" vertex="1" parent="1">
          <mxGeometry x="550" y="110" width="170" height="50" as="geometry" />
        </mxCell>
        <mxCell id="jLknQ4JefzLzpSv0ryhA-25" value="配置数据" style="rounded=0;whiteSpace=wrap;html=1;" vertex="1" parent="1">
          <mxGeometry x="-50" y="390" width="850" height="60" as="geometry" />
        </mxCell>
      </root>
    </mxGraphModel>
  </diagram>
</mxfile>
